<?xml version="1.0" encoding="utf-8"?>
<!-- Generator: Adobe Illustrator 24.1.2, SVG Export Plug-In . SVG Version: 6.00 Build 0)  -->
<svg version="1.1" id="Layer_1" xmlns="http://www.w3.org/2000/svg" xmlns:xlink="http://www.w3.org/1999/xlink" x="0px" y="0px"
	 viewBox="0 0 87 90" style="enable-background:new 0 0 87 90;" xml:space="preserve">
<style type="text/css">
	.st0{fill:#FFFFFF;}
	.st1{fill-rule:evenodd;clip-rule:evenodd;fill:#FF8000;}
	.st2{fill:#FF8000;}
	.st3{fill:none;}
	.st4{fill:#F8FBFA;}
	.st5{fill:#FBFCFC;}
	.st6{fill:#FDFEFD;}
</style>
<polygon class="st0" points="50.5,82.9 4,72.2 4.1,15.4 50.2,4.7 "/>
<g>
	<path id="_x40_" class="st1" d="M32.2,31c-1,0-1.9,0.9-1.9,1.9c0,1,0.9,1.9,1.9,1.9s1.9-0.9,1.9-1.9C34.2,31.9,33.3,31,32.2,31
		C32.3,31,32.3,31,32.2,31z M32.2,31.1c1,0,1.7,0.8,1.8,1.7c0,1-0.8,1.7-1.7,1.8c-1,0-1.7-0.8-1.8-1.7c0,0,0,0,0,0
		c0-0.9,0.7-1.7,1.6-1.7C32.1,31.1,32.2,31.1,32.2,31.1z M32.8,33.8H33L32.5,33c0.3,0,0.5-0.3,0.5-0.5c0-0.3-0.3-0.6-0.7-0.6h-0.6
		v1.9h0.2V33h0.3c0.1,0,0.1,0,0.2,0L32.8,33.8z M31.8,32.8v-0.8h0.4c0.3,0,0.5,0.1,0.5,0.4c0,0.3-0.2,0.4-0.5,0.4H31.8L31.8,32.8z"
		/>
	<path id="_x32_" class="st2" d="M9.4,56c0,0,0.4-1.3,2.2-3.4c1.7-2,2.7-2.3,5.7-4.6c4.2-3.2,6.4-4.6,6.4-7.2c0-0.2,0-2.2-1.4-3.4
		c-0.7-0.7-1.8-1-2.9-1c-0.4,0-1.6,0-2.7,0.7c-1.9,1.3-2,3.6-2,3.8c-2,0-4,0.1-5.9,0.1c0-0.5,0.1-1.1,0.1-1.6
		c0.2-0.9,0.8-3.7,3.2-5.9c2.9-2.6,6.3-2.6,7.5-2.6c6.1,0,10.3,3.8,10.3,9.5c0,5-2.7,7.2-6.3,9.7C21,51.9,18,53.4,16,56H9.4z"/>
	<path id="_x31_" class="st2" d="M44.3,55.9h-6.4V40.9h-7.2V36l0.8,0c4.1,0,7-0.7,7.9-5.2h5L44.3,55.9L44.3,55.9z"/>
</g>
<line class="st3" x1="63" y1="52.2" x2="70.4" y2="52.2"/>
<path class="st4" d="M70.4,51.3"/>
<line class="st3" x1="63.2" y1="52.6" x2="70.7" y2="52.6"/>
<line class="st3" x1="69.9" y1="51.3" x2="52.9" y2="16.7"/>
<g>
	<path class="st0" d="M65,44.3c0,3.3,0,6.6,0,10c1.9,0,3.1,0,3.8,0v5.5h-5.8c0-1.2,0-2.4,0-3.6c-7.5,0-3.3,0-10.8,0
		c0,3.3,0,6.6,0,10c7.5,0,3.3,0,10.8,0c0-1.1,0-2.2,0-3.4h6.6v0h2.1v-8.5c0.8,0,1.9,0,4,0c0-3.3,0-6.6,0-10
		C68.3,44.3,72.5,44.3,65,44.3z M60.6,63.6c-2.5,0-2.8,0-2.9,0c0,0,0,0,0,0c0,0-0.4,0-2.9,0c0-1.6,0-3.3,0-5c2.5,0,2.8,0,2.9,0
		c0,0,0,0,0,0c0,0,0.4,0,2.9,0C60.6,60.3,60.6,62,60.6,63.6z M73.3,51.7c-2.5,0-2.8,0-2.9,0c0,0,0,0,0,0c0,0-0.4,0-2.9,0
		c0-1.6,0-3.3,0-5c2.5,0,2.8,0,2.9,0c0,0,0,0,0,0c0,0,0.4,0,2.9,0C73.3,48.4,73.3,50.1,73.3,51.7z"/>
	<path class="st0" d="M63.1,44.4c-7.5,0-3.3,0-10.8,0c0,3.3,0,6.6,0,10c7.5,0,3.3,0,10.8,0C63.1,51,63.1,47.7,63.1,44.4z"/>
</g>
<path class="st5" d="M54.7,20.6c0,6.4,0,12.6,0,18.9c6.3,0,12.6,0,19,0c0-3,0-5.9,0-8.9c0.9-1.1,1.7-2.2,2.7-3.4
	c0,5.1,0,10.1,0,15.1c-8.1,0-16.2,0-24.4,0c0-8.1,0-16.2,0-24.4c6.4,0,12.8,0,19.4,0c-0.7,0.9-1.4,1.8-2,2.7
	C64.4,20.6,59.6,20.6,54.7,20.6z"/>
<path class="st6" d="M50.2,11.7c0.3,0,0.6,0,0.9,0c9,0,18,0,27.1,0c1.9,0,2.9,1,2.9,2.9c0,18.6,0,37.3,0,55.9c0,1.8-1,2.8-2.8,2.8
	c-9,0-18.1,0-27.1,0c-0.3,0-0.5,0-0.9,0 M50.3,14.4c0,18.9,0,37.6,0,56.4c9.4,0,18.8,0,28.2,0c0-16.6,0-33.2,0-49.9
	c-4.4,5.6-8.7,11-13,16.5c-2.8-3.1-5.5-6.2-8.3-9.4c0.9-0.8,1.7-1.6,2.6-2.3c0.1-0.1,0.7,0.1,0.9,0.3c0.8,0.8,1.5,1.6,2.2,2.4
	c0.9,0.9,1.7,1.9,2.6,2.8c3.4-4.4,6.7-8.8,10.1-13.3c1,0.8,1.9,1.5,2.9,2.3c0-2,0-3.9,0-5.9C69.1,14.4,59.7,14.4,50.3,14.4z"/>
</svg>
